<svg aria-hidden="true" style="position: absolute; width: 0; height: 0; overflow: hidden;" version="1.1" xmlns="http://www.w3.org/2000/svg" xmlns:xlink="http://www.w3.org/1999/xlink">
<defs>
<symbol id="github" viewBox="0 0 32 32">
<path stroke-linejoin="round" stroke-linecap="round" stroke-miterlimit="4" stroke-width="2.6667" d="M12 25.333c-6.667 2-6.667-3.333-9.333-4M21.333 29.333v-5.16c0.009-0.105 0.014-0.228 0.014-0.352 0-1.216-0.483-2.32-1.268-3.129l0.001 0.001c4.187-0.467 8.587-2.053 8.587-9.333-0-1.94-0.762-3.702-2.003-5.003l0.003 0.003c0.27-0.702 0.427-1.515 0.427-2.364 0-0.962-0.201-1.878-0.564-2.707l0.017 0.044s-1.573-0.467-5.213 1.973c-1.399-0.394-3.007-0.621-4.667-0.621s-3.267 0.227-4.792 0.651l0.125-0.030c-3.64-2.44-5.213-1.973-5.213-1.973-0.346 0.785-0.547 1.701-0.547 2.663 0 0.849 0.157 1.661 0.442 2.41l-0.016-0.046c-1.238 1.299-2 3.061-2 5.001 0 0.014 0 0.027 0 0.041v-0.002c0 7.227 4.4 8.813 8.587 9.333-0.782 0.808-1.264 1.91-1.264 3.125 0 0.111 0.004 0.221 0.012 0.33l-0.001-0.015v5.16"></path>
</symbol>
<symbol id="telegram" viewBox="0 0 32 32">
<path d="M28.581 4.346c-0.261-0.226-0.603-0.364-0.978-0.364-0.198 0-0.387 0.038-0.559 0.108l0.010-0.004-23.070 9.063c-0.562 0.225-0.951 0.765-0.951 1.396 0 0.724 0.513 1.329 1.196 1.469l0.010 0.002 6.262 1.252v7.729c-0 0.005-0 0.010-0 0.016 0 0.617 0.379 1.146 0.916 1.367l0.010 0.004c0.172 0.074 0.373 0.117 0.583 0.118h0c0.412-0.001 0.784-0.171 1.051-0.443l3.575-3.575 5.274 4.641c0.261 0.233 0.607 0.375 0.986 0.375h0c0.166-0 0.326-0.027 0.476-0.077l-0.011 0.003c0.503-0.163 0.882-0.573 1-1.082l0.002-0.010 4.702-20.517c0.024-0.101 0.038-0.217 0.038-0.336 0-0.453-0.201-0.859-0.52-1.134l-0.002-0.002zM4.034 14.59c-0.002-0.017-0.003-0.036-0.003-0.055 0-0.208 0.131-0.385 0.315-0.453l0.003-0.001 21.147-8.308-14.613 10.553-6.45-1.29c-0.219-0.039-0.386-0.221-0.4-0.445l-0-0.001zM12.354 25.352c-0.090 0.090-0.215 0.146-0.354 0.146-0.276 0-0.5-0.224-0.5-0.5v0-7.033l4.383 3.857zM28.089 5.594l-4.702 20.517c-0.053 0.224-0.251 0.388-0.487 0.388-0.127 0-0.243-0.047-0.331-0.125l0.001 0-10.769-9.477 16.208-11.706c0.059 0.079 0.095 0.178 0.095 0.286 0 0.041-0.005 0.082-0.015 0.12l0.001-0.003z"></path>
</symbol>
<symbol id="linkedin" viewBox="0 0 32 32">
<path d="M16.009 2.481c-7.454 0-13.518 6.064-13.518 13.519s6.064 13.519 13.518 13.519c7.454 0 13.519-6.064 13.519-13.519s-6.065-13.519-13.519-13.519zM16.009 28.185c-6.719 0-12.185-5.466-12.185-12.185s5.466-12.185 12.185-12.185 12.186 5.466 12.186 12.185c-0 6.719-5.467 12.185-12.186 12.185z"></path>
<path d="M9.143 13.136h3.128v8.163h-3.128v-8.163z"></path>
<path d="M12.259 10.389c0 0.798-0.709 1.444-1.583 1.444s-1.583-0.647-1.583-1.444c0-0.798 0.709-1.444 1.583-1.444s1.583 0.647 1.583 1.444z"></path>
<path d="M20.135 12.951c-0.641 0-1.184 0.117-1.63 0.35s-0.886 0.621-1.322 1.164v-1.33h-2.913v8.163h3.128v-3.92c0-0.743 0.118-1.258 0.354-1.545s0.543-0.43 0.922-0.43c0.343 0 0.61 0.106 0.8 0.319s0.284 0.575 0.284 1.088v4.489h3.144v-5.188c0-1.076-0.245-1.872-0.734-2.387s-1.167-0.772-2.033-0.772z"></path>
</symbol>
<symbol id="phone" viewBox="0 0 32 32">
<path d="M1.333 5.333c0-2.209 1.791-4 4-4h5.093l1.688 8.438-3.562 3.562c1.381 4.883 5.231 8.733 10.114 10.114l3.562-3.562 8.438 1.688v5.093c0 2.209-1.791 4-4 4h-4c-11.782 0-21.333-9.551-21.333-21.333v-4zM5.333 4c-0.736 0-1.333 0.597-1.333 1.333v4c0 10.309 8.357 18.667 18.667 18.667h4c0.736 0 1.333-0.597 1.333-1.333v-2.907l-4.895-0.979-3.612 3.612-0.719-0.165c-6.448-1.48-11.521-6.553-13.001-13.001l-0.165-0.719 3.612-3.612-0.979-4.895h-2.907z"></path>
<path d="M29.886 4l-6.667 6.667h3.448v2.667h-8v-8h2.667v3.448l6.667-6.667 1.886 1.886z"></path>
</symbol>
<symbol id="mail" viewBox="0 0 32 32">
<path d="M28 4h-24c-2.209 0-4 1.791-4 4v16c0 2.209 1.791 4 4 4h24c2.209 0 4-1.791 4-4v-16c0-2.209-1.791-4-4-4zM21.416 14.674l8.467-7.256c0.059 0.188 0.117 0.375 0.117 0.582v16c0 0.139-0.053 0.262-0.080 0.393l-8.504-9.719zM28 6c0.133 0 0.25 0.051 0.375 0.076l-12.375 10.607-12.375-10.607c0.125-0.025 0.242-0.076 0.375-0.076h24zM2.079 24.391c-0.027-0.131-0.079-0.252-0.079-0.391v-16c0-0.207 0.060-0.395 0.118-0.582l8.464 7.254-8.503 9.719zM4 26c-0.202 0-0.386-0.059-0.57-0.115l8.672-9.91 3.248 2.783c0.187 0.162 0.419 0.242 0.65 0.242s0.464-0.080 0.65-0.242l3.248-2.783 8.672 9.91c-0.184 0.057-0.367 0.115-0.57 0.115h-24z"></path>
</symbol>
</defs>
</svg>
